STARTFONT 2.1
FONT -Linotype-Palatino-Medium-R-Normal--14-140-72-72-P-77-ISO8859-1
SIZE 14 72 72
FONTBOUNDINGBOX 16 18 -1 -4

STARTPROPERTIES 21
FOUNDRY "Linotype"
FAMILY_NAME "Palatino"
WEIGHT_NAME "Medium"
SLANT "R"
SETWIDTH_NAME "Normal"
ADD_STYLE_NAME ""
PIXEL_SIZE 14
POINT_SIZE 140
RESOLUTION_X 72
RESOLUTION_Y 72
SPACING "P"
AVERAGE_WIDTH 77
CHARSET_REGISTRY "ISO8859"
CHARSET_ENCODING "1"
FULL_NAME "Palatino-Roman"
QUAD_WIDTH 7
X_HEIGHT 7
WEIGHT 10
DEFAULT_CHAR 32
FONT_DESCENT 4
FONT_ASCENT 14
ENDPROPERTIES

CHARS 190

STARTCHAR space
ENCODING 32
SWIDTH 250 0
DWIDTH 4 0
BBX 1 1 0 0
BITMAP
00
ENDCHAR

STARTCHAR exclam
ENCODING 33
SWIDTH 278 0
DWIDTH 4 0
BBX 1 10 1 0
BITMAP
80
80
80
80
80
80
80
00
80
80
ENDCHAR

STARTCHAR quotedbl
ENCODING 34
SWIDTH 371 0
DWIDTH 5 0
BBX 3 3 0 7
BITMAP
A0
A0
A0
ENDCHAR

STARTCHAR numbersign
ENCODING 35
SWIDTH 500 0
DWIDTH 8 0
BBX 8 10 0 0
BITMAP
12
12
12
7F
24
24
FE
48
48
48
ENDCHAR

STARTCHAR dollar
ENCODING 36
SWIDTH 500 0
DWIDTH 7 0
BBX 5 12 1 -1
BITMAP
20
78
A8
A0
A0
60
30
28
28
A8
F0
20
ENDCHAR

STARTCHAR percent
ENCODING 37
SWIDTH 840 0
DWIDTH 12 0
BBX 9 10 1 0
BITMAP
6200
9200
9400
9400
6800
0B00
1480
1480
2480
2300
ENDCHAR

STARTCHAR ampersand
ENCODING 38
SWIDTH 778 0
DWIDTH 11 0
BBX 10 10 0 0
BITMAP
1800
2800
2800
3000
2000
73C0
9900
8D00
C600
7DC0
ENDCHAR

STARTCHAR quoteright
ENCODING 39
SWIDTH 278 0
DWIDTH 4 0
BBX 2 3 0 7
BITMAP
40
40
80
ENDCHAR

STARTCHAR parenleft
ENCODING 40
SWIDTH 333 0
DWIDTH 5 0
BBX 3 12 1 -2
BITMAP
20
40
40
80
80
80
80
80
80
40
40
20
ENDCHAR

STARTCHAR parenright
ENCODING 41
SWIDTH 333 0
DWIDTH 5 0
BBX 3 12 1 -2
BITMAP
80
40
40
20
20
20
20
20
20
40
40
80
ENDCHAR

STARTCHAR asterisk
ENCODING 42
SWIDTH 389 0
DWIDTH 5 0
BBX 5 5 0 5
BITMAP
20
A0
58
60
90
ENDCHAR

STARTCHAR plus
ENCODING 43
SWIDTH 606 0
DWIDTH 8 0
BBX 7 7 0 1
BITMAP
10
10
10
FE
10
10
10
ENDCHAR

STARTCHAR comma
ENCODING 44
SWIDTH 250 0
DWIDTH 4 0
BBX 2 3 0 -1
BITMAP
40
40
80
ENDCHAR

STARTCHAR minus
ENCODING 45
SWIDTH 606 0
DWIDTH 8 0
BBX 7 1 0 4
BITMAP
FE
ENDCHAR

STARTCHAR period
ENCODING 46
SWIDTH 250 0
DWIDTH 4 0
BBX 1 2 1 0
BITMAP
80
80
ENDCHAR

STARTCHAR slash
ENCODING 47
SWIDTH 606 0
DWIDTH 8 0
BBX 6 11 1 -1
BITMAP
04
04
08
08
10
10
20
20
40
40
80
ENDCHAR

STARTCHAR zero
ENCODING 48
SWIDTH 500 0
DWIDTH 7 0
BBX 6 10 0 0
BITMAP
78
CC
84
84
84
84
84
84
CC
78
ENDCHAR

STARTCHAR one
ENCODING 49
SWIDTH 500 0
DWIDTH 7 0
BBX 4 10 1 0
BITMAP
20
60
A0
20
20
20
20
20
20
70
ENDCHAR

STARTCHAR two
ENCODING 50
SWIDTH 500 0
DWIDTH 7 0
BBX 6 10 0 0
BITMAP
F0
88
08
08
08
10
20
40
80
FC
ENDCHAR

STARTCHAR three
ENCODING 51
SWIDTH 500 0
DWIDTH 7 0
BBX 6 10 0 0
BITMAP
70
88
08
10
78
0C
04
04
88
F0
ENDCHAR

STARTCHAR four
ENCODING 52
SWIDTH 500 0
DWIDTH 7 0
BBX 6 10 0 0
BITMAP
18
18
28
28
48
88
FC
08
08
1C
ENDCHAR

STARTCHAR five
ENCODING 53
SWIDTH 500 0
DWIDTH 7 0
BBX 6 10 0 0
BITMAP
7C
40
40
78
4C
04
04
04
88
F0
ENDCHAR

STARTCHAR six
ENCODING 54
SWIDTH 500 0
DWIDTH 7 0
BBX 6 10 0 0
BITMAP
18
20
40
B8
CC
84
84
84
C8
78
ENDCHAR

STARTCHAR seven
ENCODING 55
SWIDTH 500 0
DWIDTH 7 0
BBX 6 10 0 0
BITMAP
FC
84
08
08
10
20
20
40
40
C0
ENDCHAR

STARTCHAR eight
ENCODING 56
SWIDTH 500 0
DWIDTH 7 0
BBX 6 10 0 0
BITMAP
78
CC
84
C4
78
48
84
84
CC
78
ENDCHAR

STARTCHAR nine
ENCODING 57
SWIDTH 500 0
DWIDTH 7 0
BBX 6 10 0 0
BITMAP
78
4C
84
84
84
CC
78
08
10
60
ENDCHAR

STARTCHAR colon
ENCODING 58
SWIDTH 250 0
DWIDTH 4 0
BBX 1 7 1 0
BITMAP
80
80
00
00
00
80
80
ENDCHAR

STARTCHAR semicolon
ENCODING 59
SWIDTH 250 0
DWIDTH 4 0
BBX 2 8 0 -1
BITMAP
40
40
00
00
00
40
40
80
ENDCHAR

STARTCHAR less
ENCODING 60
SWIDTH 606 0
DWIDTH 8 0
BBX 7 7 0 0
BITMAP
06
18
60
80
60
18
06
ENDCHAR

STARTCHAR equal
ENCODING 61
SWIDTH 606 0
DWIDTH 8 0
BBX 7 4 0 2
BITMAP
FE
00
00
FE
ENDCHAR

STARTCHAR greater
ENCODING 62
SWIDTH 606 0
DWIDTH 8 0
BBX 7 7 0 0
BITMAP
C0
30
0C
02
0C
30
C0
ENDCHAR

STARTCHAR question
ENCODING 63
SWIDTH 444 0
DWIDTH 6 0
BBX 4 10 1 0
BITMAP
E0
90
10
10
20
40
40
00
40
40
ENDCHAR

STARTCHAR at
ENCODING 64
SWIDTH 747 0
DWIDTH 10 0
BBX 10 10 0 0
BITMAP
1F00
2080
4E40
9240
A440
A480
9B00
4000
2180
1E00
ENDCHAR

STARTCHAR A
ENCODING 65
SWIDTH 778 0
DWIDTH 12 0
BBX 11 10 0 0
BITMAP
0400
0400
0A00
0A00
1100
1100
3F80
2080
4040
E0E0
ENDCHAR

STARTCHAR B
ENCODING 66
SWIDTH 611 0
DWIDTH 9 0
BBX 8 10 0 0
BITMAP
FC
42
42
44
7E
43
41
41
42
FC
ENDCHAR

STARTCHAR C
ENCODING 67
SWIDTH 709 0
DWIDTH 10 0
BBX 9 10 0 0
BITMAP
1F00
2180
4080
8000
8000
8000
8000
C000
6080
3F00
ENDCHAR

STARTCHAR D
ENCODING 68
SWIDTH 774 0
DWIDTH 11 0
BBX 10 10 0 0
BITMAP
FF00
4180
40C0
4040
4040
4040
4040
4080
4100
FE00
ENDCHAR

STARTCHAR E
ENCODING 69
SWIDTH 611 0
DWIDTH 8 0
BBX 7 10 0 0
BITMAP
FE
42
40
44
7C
44
40
40
42
FE
ENDCHAR

STARTCHAR F
ENCODING 70
SWIDTH 556 0
DWIDTH 8 0
BBX 7 10 0 0
BITMAP
FE
42
40
44
7C
44
40
40
40
E0
ENDCHAR

STARTCHAR G
ENCODING 71
SWIDTH 763 0
DWIDTH 11 0
BBX 10 10 0 0
BITMAP
1F00
2180
4080
8000
8000
83C0
8080
C080
6180
3E00
ENDCHAR

STARTCHAR H
ENCODING 72
SWIDTH 832 0
DWIDTH 11 0
BBX 10 10 0 0
BITMAP
E1C0
4080
4080
4080
7F80
4080
4080
4080
4080
E1C0
ENDCHAR

STARTCHAR I
ENCODING 73
SWIDTH 337 0
DWIDTH 4 0
BBX 3 10 0 0
BITMAP
E0
40
40
40
40
40
40
40
40
E0
ENDCHAR

STARTCHAR J
ENCODING 74
SWIDTH 333 0
DWIDTH 4 0
BBX 3 13 0 -3
BITMAP
E0
40
40
40
40
40
40
40
40
40
40
40
80
ENDCHAR

STARTCHAR K
ENCODING 75
SWIDTH 726 0
DWIDTH 10 0
BBX 9 10 0 0
BITMAP
E700
4400
4800
5000
7000
5800
4C00
4600
4300
E180
ENDCHAR

STARTCHAR L
ENCODING 76
SWIDTH 611 0
DWIDTH 9 0
BBX 8 10 0 0
BITMAP
E0
40
40
40
40
40
40
40
41
FF
ENDCHAR

STARTCHAR M
ENCODING 77
SWIDTH 946 0
DWIDTH 14 0
BBX 13 10 0 0
BITMAP
E038
6030
5050
5050
4890
4890
4510
4510
4210
E238
ENDCHAR

STARTCHAR N
ENCODING 78
SWIDTH 831 0
DWIDTH 11 0
BBX 10 10 0 0
BITMAP
C1C0
6080
5080
5080
4880
4480
4280
4280
4180
E080
ENDCHAR

STARTCHAR O
ENCODING 79
SWIDTH 786 0
DWIDTH 11 0
BBX 10 10 0 0
BITMAP
1F00
2180
40C0
8040
8040
8040
8040
C080
6100
3E00
ENDCHAR

STARTCHAR P
ENCODING 80
SWIDTH 604 0
DWIDTH 8 0
BBX 7 10 0 0
BITMAP
FC
46
42
42
44
58
40
40
40
E0
ENDCHAR

STARTCHAR Q
ENCODING 81
SWIDTH 786 0
DWIDTH 11 0
BBX 10 12 0 -2
BITMAP
1F00
2180
40C0
8040
8040
8040
8040
C080
6100
1E00
1C40
2380
ENDCHAR

STARTCHAR R
ENCODING 82
SWIDTH 668 0
DWIDTH 9 0
BBX 9 10 0 0
BITMAP
FC00
4600
4200
4200
4400
5800
4C00
4600
4300
E180
ENDCHAR

STARTCHAR S
ENCODING 83
SWIDTH 525 0
DWIDTH 7 0
BBX 6 10 0 0
BITMAP
3C
C4
80
C0
78
0C
04
04
8C
F0
ENDCHAR

STARTCHAR T
ENCODING 84
SWIDTH 613 0
DWIDTH 10 0
BBX 9 10 0 0
BITMAP
FF80
8880
0800
0800
0800
0800
0800
0800
0800
1C00
ENDCHAR

STARTCHAR U
ENCODING 85
SWIDTH 778 0
DWIDTH 11 0
BBX 10 10 0 0
BITMAP
E1C0
4080
4080
4080
4080
4080
4080
4080
6180
3F00
ENDCHAR

STARTCHAR V
ENCODING 86
SWIDTH 722 0
DWIDTH 11 0
BBX 11 10 -1 0
BITMAP
E0E0
4040
2080
2080
1100
1100
0A00
0A00
0400
0400
ENDCHAR

STARTCHAR W
ENCODING 87
SWIDTH 1000 0
DWIDTH 14 0
BBX 13 10 0 0
BITMAP
E238
4210
4210
4510
2520
28A0
28A0
18C0
1040
1040
ENDCHAR

STARTCHAR X
ENCODING 88
SWIDTH 667 0
DWIDTH 9 0
BBX 8 10 0 0
BITMAP
C3
62
24
34
18
18
2C
24
42
C3
ENDCHAR

STARTCHAR Y
ENCODING 89
SWIDTH 667 0
DWIDTH 9 0
BBX 8 10 0 0
BITMAP
C1
42
22
14
14
08
08
08
08
1C
ENDCHAR

STARTCHAR Z
ENCODING 90
SWIDTH 667 0
DWIDTH 9 0
BBX 8 10 0 0
BITMAP
7F
42
04
04
08
10
20
20
41
FF
ENDCHAR

STARTCHAR bracketleft
ENCODING 91
SWIDTH 333 0
DWIDTH 5 0
BBX 2 12 2 -2
BITMAP
C0
80
80
80
80
80
80
80
80
80
80
C0
ENDCHAR

STARTCHAR backslash
ENCODING 92
SWIDTH 606 0
DWIDTH 8 0
BBX 6 11 0 -1
BITMAP
80
80
40
40
20
20
10
10
08
08
04
ENDCHAR

STARTCHAR bracketright
ENCODING 93
SWIDTH 333 0
DWIDTH 5 0
BBX 2 12 1 -2
BITMAP
C0
40
40
40
40
40
40
40
40
40
40
C0
ENDCHAR

STARTCHAR asciicircum
ENCODING 94
SWIDTH 606 0
DWIDTH 8 0
BBX 5 6 1 4
BITMAP
20
20
50
50
88
88
ENDCHAR

STARTCHAR underscore
ENCODING 95
SWIDTH 500 0
DWIDTH 7 0
BBX 7 1 0 -2
BITMAP
FE
ENDCHAR

STARTCHAR quoteleft
ENCODING 96
SWIDTH 278 0
DWIDTH 4 0
BBX 2 3 0 7
BITMAP
40
80
80
ENDCHAR

STARTCHAR a
ENCODING 97
SWIDTH 500 0
DWIDTH 7 0
BBX 6 7 0 0
BITMAP
70
88
38
48
88
98
6C
ENDCHAR

STARTCHAR b
ENCODING 98
SWIDTH 553 0
DWIDTH 7 0
BBX 7 10 -1 0
BITMAP
C0
40
40
5C
66
42
42
42
64
58
ENDCHAR

STARTCHAR c
ENCODING 99
SWIDTH 444 0
DWIDTH 6 0
BBX 5 7 0 0
BITMAP
78
88
80
80
80
C8
70
ENDCHAR

STARTCHAR d
ENCODING 100
SWIDTH 611 0
DWIDTH 8 0
BBX 7 10 0 0
BITMAP
0C
04
04
34
4C
84
84
84
CC
76
ENDCHAR

STARTCHAR e
ENCODING 101
SWIDTH 479 0
DWIDTH 7 0
BBX 6 7 0 0
BITMAP
38
CC
84
FC
80
C4
78
ENDCHAR

STARTCHAR f
ENCODING 102
SWIDTH 333 0
DWIDTH 5 0
BBX 4 10 0 0
BITMAP
30
40
40
F0
40
40
40
40
40
E0
ENDCHAR

STARTCHAR g
ENCODING 103
SWIDTH 556 0
DWIDTH 8 0
BBX 7 11 0 -4
BITMAP
38
46
84
C8
70
80
7C
82
82
C4
78
ENDCHAR

STARTCHAR h
ENCODING 104
SWIDTH 582 0
DWIDTH 8 0
BBX 7 10 0 0
BITMAP
C0
40
40
58
64
44
44
44
44
E6
ENDCHAR

STARTCHAR i
ENCODING 105
SWIDTH 291 0
DWIDTH 4 0
BBX 3 10 0 0
BITMAP
40
40
00
C0
40
40
40
40
40
E0
ENDCHAR

STARTCHAR j
ENCODING 106
SWIDTH 234 0
DWIDTH 3 0
BBX 2 14 0 -4
BITMAP
40
40
00
C0
40
40
40
40
40
40
40
40
40
80
ENDCHAR

STARTCHAR k
ENCODING 107
SWIDTH 556 0
DWIDTH 8 0
BBX 7 10 0 0
BITMAP
C0
40
40
4C
48
50
70
48
44
E6
ENDCHAR

STARTCHAR l
ENCODING 108
SWIDTH 291 0
DWIDTH 4 0
BBX 3 10 0 0
BITMAP
C0
40
40
40
40
40
40
40
40
E0
ENDCHAR

STARTCHAR m
ENCODING 109
SWIDTH 883 0
DWIDTH 12 0
BBX 11 7 0 0
BITMAP
D980
6640
4440
4440
4440
4440
EE60
ENDCHAR

STARTCHAR n
ENCODING 110
SWIDTH 582 0
DWIDTH 8 0
BBX 7 7 0 0
BITMAP
D8
64
44
44
44
44
E6
ENDCHAR

STARTCHAR o
ENCODING 111
SWIDTH 546 0
DWIDTH 8 0
BBX 7 7 0 0
BITMAP
3C
C6
82
82
82
C6
78
ENDCHAR

STARTCHAR p
ENCODING 112
SWIDTH 601 0
DWIDTH 8 0
BBX 7 11 0 -4
BITMAP
DC
66
42
42
42
64
58
40
40
40
E0
ENDCHAR

STARTCHAR q
ENCODING 113
SWIDTH 560 0
DWIDTH 7 0
BBX 7 11 0 -4
BITMAP
34
4C
84
84
84
CC
74
04
04
04
0E
ENDCHAR

STARTCHAR r
ENCODING 114
SWIDTH 395 0
DWIDTH 6 0
BBX 5 7 0 0
BITMAP
D8
60
40
40
40
40
E0
ENDCHAR

STARTCHAR s
ENCODING 115
SWIDTH 424 0
DWIDTH 6 0
BBX 5 7 0 0
BITMAP
78
88
80
70
08
88
F0
ENDCHAR

STARTCHAR t
ENCODING 116
SWIDTH 326 0
DWIDTH 5 0
BBX 4 9 0 0
BITMAP
40
40
F0
40
40
40
40
40
30
ENDCHAR

STARTCHAR u
ENCODING 117
SWIDTH 603 0
DWIDTH 8 0
BBX 7 7 0 0
BITMAP
CC
44
44
44
44
4C
36
ENDCHAR

STARTCHAR v
ENCODING 118
SWIDTH 565 0
DWIDTH 8 0
BBX 7 7 0 0
BITMAP
EE
44
44
28
28
10
10
ENDCHAR

STARTCHAR w
ENCODING 119
SWIDTH 834 0
DWIDTH 12 0
BBX 11 7 0 0
BITMAP
E4E0
4440
4A40
2A80
2A80
1100
1100
ENDCHAR

STARTCHAR x
ENCODING 120
SWIDTH 516 0
DWIDTH 7 0
BBX 6 7 0 0
BITMAP
CC
48
30
30
30
48
CC
ENDCHAR

STARTCHAR y
ENCODING 121
SWIDTH 556 0
DWIDTH 8 0
BBX 8 11 0 -4
BITMAP
E7
42
24
24
18
18
10
10
20
20
C0
ENDCHAR

STARTCHAR z
ENCODING 122
SWIDTH 500 0
DWIDTH 7 0
BBX 6 7 0 0
BITMAP
7C
48
10
10
20
44
FC
ENDCHAR

STARTCHAR braceleft
ENCODING 123
SWIDTH 333 0
DWIDTH 5 0
BBX 3 11 1 -1
BITMAP
20
40
40
40
40
80
40
40
40
40
20
ENDCHAR

STARTCHAR bar
ENCODING 124
SWIDTH 606 0
DWIDTH 8 0
BBX 1 10 3 0
BITMAP
80
80
80
80
80
80
80
80
80
80
ENDCHAR

STARTCHAR braceright
ENCODING 125
SWIDTH 333 0
DWIDTH 5 0
BBX 3 11 0 -1
BITMAP
80
40
40
40
40
20
40
40
40
40
80
ENDCHAR

STARTCHAR asciitilde
ENCODING 126
SWIDTH 606 0
DWIDTH 8 0
BBX 7 2 0 3
BITMAP
72
9C
ENDCHAR

STARTCHAR exclamdown
ENCODING 161
SWIDTH 278 0
DWIDTH 4 0
BBX 1 11 2 -4
BITMAP
80
80
00
80
80
80
80
80
80
80
80
ENDCHAR

STARTCHAR cent
ENCODING 162
SWIDTH 500 0
DWIDTH 7 0
BBX 5 9 1 -1
BITMAP
20
78
A8
A0
A0
A0
A8
70
20
ENDCHAR

STARTCHAR sterling
ENCODING 163
SWIDTH 500 0
DWIDTH 7 0
BBX 6 10 0 0
BITMAP
1C
24
40
40
F8
40
40
40
44
FC
ENDCHAR

STARTCHAR currency
ENCODING 164
SWIDTH 500 0
DWIDTH 8 0
BBX 7 7 0 1
BITMAP
BA
44
82
82
82
44
BA
ENDCHAR

STARTCHAR yen
ENCODING 165
SWIDTH 500 0
DWIDTH 7 0
BBX 7 10 0 0
BITMAP
C2
44
24
28
7C
10
7C
10
10
38
ENDCHAR

STARTCHAR brokenbar
ENCODING 166
SWIDTH 606 0
DWIDTH 8 0
BBX 1 10 3 0
BITMAP
80
80
80
80
00
80
80
80
80
80
ENDCHAR

STARTCHAR section
ENCODING 167
SWIDTH 500 0
DWIDTH 7 0
BBX 6 13 0 -3
BITMAP
7C
C4
80
C0
70
8C
84
C4
38
0C
04
8C
F8
ENDCHAR

STARTCHAR dieresis
ENCODING 168
SWIDTH 333 0
DWIDTH 5 0
BBX 4 2 0 8
BITMAP
90
90
ENDCHAR

STARTCHAR copyright
ENCODING 169
SWIDTH 747 0
DWIDTH 10 0
BBX 10 10 0 0
BITMAP
1E00
2100
4E80
9240
A040
A040
9240
4C80
2100
1E00
ENDCHAR

STARTCHAR ordfeminine
ENCODING 170
SWIDTH 333 0
DWIDTH 5 0
BBX 4 7 0 3
BITMAP
70
90
70
90
F0
00
F0
ENDCHAR

STARTCHAR guillemotleft
ENCODING 171
SWIDTH 500 0
DWIDTH 7 0
BBX 6 5 0 1
BITMAP
24
48
90
48
24
ENDCHAR

STARTCHAR logicalnot
ENCODING 172
SWIDTH 606 0
DWIDTH 8 0
BBX 7 4 0 2
BITMAP
FE
02
02
02
ENDCHAR

STARTCHAR hyphen
ENCODING 173
SWIDTH 333 0
DWIDTH 5 0
BBX 4 1 0 3
BITMAP
F0
ENDCHAR

STARTCHAR registered
ENCODING 174
SWIDTH 747 0
DWIDTH 10 0
BBX 10 10 0 0
BITMAP
1E00
2100
7C80
9240
9E40
9440
9240
7980
2100
1E00
ENDCHAR

STARTCHAR macron
ENCODING 175
SWIDTH 333 0
DWIDTH 5 0
BBX 4 1 0 8
BITMAP
F0
ENDCHAR

STARTCHAR degree
ENCODING 176
SWIDTH 400 0
DWIDTH 7 0
BBX 4 3 2 7
BITMAP
60
90
60
ENDCHAR

STARTCHAR plusminus
ENCODING 177
SWIDTH 606 0
DWIDTH 8 0
BBX 7 8 0 0
BITMAP
10
10
10
FE
10
10
10
FE
ENDCHAR

STARTCHAR twosuperior
ENCODING 178
SWIDTH 300 0
DWIDTH 4 0
BBX 3 6 0 4
BITMAP
C0
A0
20
40
80
E0
ENDCHAR

STARTCHAR threesuperior
ENCODING 179
SWIDTH 300 0
DWIDTH 4 0
BBX 3 6 0 4
BITMAP
C0
A0
40
20
A0
C0
ENDCHAR

STARTCHAR acute
ENCODING 180
SWIDTH 333 0
DWIDTH 5 0
BBX 3 2 1 8
BITMAP
60
80
ENDCHAR

STARTCHAR mu
ENCODING 181
SWIDTH 603 0
DWIDTH 8 0
BBX 7 10 0 -3
BITMAP
CC
44
44
44
44
4C
76
40
40
40
ENDCHAR

STARTCHAR paragraph
ENCODING 182
SWIDTH 628 0
DWIDTH 9 0
BBX 7 12 1 -2
BITMAP
7E
D4
D4
D4
D4
74
14
14
14
14
14
3E
ENDCHAR

STARTCHAR periodcentered
ENCODING 183
SWIDTH 250 0
DWIDTH 7 0
BBX 1 2 3 4
BITMAP
80
80
ENDCHAR

STARTCHAR cedilla
ENCODING 184
SWIDTH 333 0
DWIDTH 5 0
BBX 3 3 1 -3
BITMAP
40
20
E0
ENDCHAR

STARTCHAR onesuperior
ENCODING 185
SWIDTH 300 0
DWIDTH 4 0
BBX 3 6 0 4
BITMAP
C0
40
40
40
40
E0
ENDCHAR

STARTCHAR ordmasculine
ENCODING 186
SWIDTH 333 0
DWIDTH 5 0
BBX 4 6 0 4
BITMAP
60
90
90
60
00
F0
ENDCHAR

STARTCHAR guillemotright
ENCODING 187
SWIDTH 500 0
DWIDTH 7 0
BBX 6 5 0 1
BITMAP
90
48
24
48
90
ENDCHAR

STARTCHAR onequarter
ENCODING 188
SWIDTH 750 0
DWIDTH 11 0
BBX 9 10 1 0
BITMAP
C100
4200
4200
4400
4900
EB00
1500
2780
2100
4380
ENDCHAR

STARTCHAR onehalf
ENCODING 189
SWIDTH 750 0
DWIDTH 11 0
BBX 9 10 1 0
BITMAP
C100
4200
4200
4400
4B00
EA80
1080
2100
2200
4380
ENDCHAR

STARTCHAR threequarters
ENCODING 190
SWIDTH 750 0
DWIDTH 11 0
BBX 9 10 1 0
BITMAP
C100
A200
4200
2400
A900
CB00
1500
2780
2100
4380
ENDCHAR

STARTCHAR questiondown
ENCODING 191
SWIDTH 444 0
DWIDTH 6 0
BBX 4 10 1 -3
BITMAP
20
00
00
20
20
40
80
80
90
70
ENDCHAR

STARTCHAR Agrave
ENCODING 192
SWIDTH 778 0
DWIDTH 12 0
BBX 11 13 0 0
BITMAP
0C00
0200
0000
0400
0400
0A00
0A00
1100
1100
3F80
2080
4040
E0E0
ENDCHAR

STARTCHAR Aacute
ENCODING 193
SWIDTH 778 0
DWIDTH 12 0
BBX 11 13 0 0
BITMAP
0600
0800
0000
0400
0400
0A00
0A00
1100
1100
3F80
2080
4040
E0E0
ENDCHAR

STARTCHAR Acircumflex
ENCODING 194
SWIDTH 778 0
DWIDTH 12 0
BBX 11 13 0 0
BITMAP
0600
0900
0000
0400
0400
0A00
0A00
1100
1100
3F80
2080
4040
E0E0
ENDCHAR

STARTCHAR Atilde
ENCODING 195
SWIDTH 778 0
DWIDTH 12 0
BBX 11 13 0 0
BITMAP
0D00
0B00
0000
0400
0400
0A00
0A00
1100
1100
3F80
2080
4040
E0E0
ENDCHAR

STARTCHAR Adieresis
ENCODING 196
SWIDTH 778 0
DWIDTH 12 0
BBX 11 13 0 0
BITMAP
0900
0900
0000
0400
0400
0A00
0A00
1100
1100
3F80
2080
4040
E0E0
ENDCHAR

STARTCHAR Aring
ENCODING 197
SWIDTH 778 0
DWIDTH 12 0
BBX 11 14 0 0
BITMAP
0600
0900
0600
0000
0400
0400
0A00
0A00
1100
1100
3F80
2080
4040
E0E0
ENDCHAR

STARTCHAR AE
ENCODING 198
SWIDTH 944 0
DWIDTH 13 0
BBX 12 10 0 0
BITMAP
0FF0
0610
0A00
0A20
13E0
1220
3E00
2200
4210
E7F0
ENDCHAR

STARTCHAR Ccedilla
ENCODING 199
SWIDTH 709 0
DWIDTH 10 0
BBX 9 13 0 -3
BITMAP
1F00
2180
4080
8000
8000
8000
8000
C000
6080
3F00
0800
0400
1C00
ENDCHAR

STARTCHAR Egrave
ENCODING 200
SWIDTH 611 0
DWIDTH 8 0
BBX 7 13 0 0
BITMAP
30
08
00
FE
42
40
44
7C
44
40
40
42
FE
ENDCHAR

STARTCHAR Eacute
ENCODING 201
SWIDTH 611 0
DWIDTH 8 0
BBX 7 13 0 0
BITMAP
18
20
00
FE
42
40
44
7C
44
40
40
42
FE
ENDCHAR

STARTCHAR Ecircumflex
ENCODING 202
SWIDTH 611 0
DWIDTH 8 0
BBX 7 13 0 0
BITMAP
18
24
00
FE
42
40
44
7C
44
40
40
42
FE
ENDCHAR

STARTCHAR Edieresis
ENCODING 203
SWIDTH 611 0
DWIDTH 8 0
BBX 7 13 0 0
BITMAP
24
24
00
FE
42
40
44
7C
44
40
40
42
FE
ENDCHAR

STARTCHAR Igrave
ENCODING 204
SWIDTH 337 0
DWIDTH 4 0
BBX 3 13 0 0
BITMAP
C0
20
00
E0
40
40
40
40
40
40
40
40
E0
ENDCHAR

STARTCHAR Iacute
ENCODING 205
SWIDTH 337 0
DWIDTH 4 0
BBX 3 13 0 0
BITMAP
60
80
00
E0
40
40
40
40
40
40
40
40
E0
ENDCHAR

STARTCHAR Icircumflex
ENCODING 206
SWIDTH 337 0
DWIDTH 4 0
BBX 4 13 0 0
BITMAP
60
90
00
E0
40
40
40
40
40
40
40
40
E0
ENDCHAR

STARTCHAR Idieresis
ENCODING 207
SWIDTH 337 0
DWIDTH 4 0
BBX 4 13 0 0
BITMAP
90
90
00
E0
40
40
40
40
40
40
40
40
E0
ENDCHAR

STARTCHAR Eth
ENCODING 208
SWIDTH 774 0
DWIDTH 11 0
BBX 10 10 0 0
BITMAP
FF00
4180
40C0
4040
F840
4040
4040
4080
4100
FE00
ENDCHAR

STARTCHAR Ntilde
ENCODING 209
SWIDTH 831 0
DWIDTH 11 0
BBX 10 13 0 0
BITMAP
1A00
1600
0000
E1C0
6080
5080
4880
4880
4480
4280
4280
4180
E080
ENDCHAR

STARTCHAR Ograve
ENCODING 210
SWIDTH 786 0
DWIDTH 11 0
BBX 10 13 0 0
BITMAP
1800
0400
0000
1F00
2180
40C0
8040
8040
8040
8040
C080
6100
3E00
ENDCHAR

STARTCHAR Oacute
ENCODING 211
SWIDTH 786 0
DWIDTH 11 0
BBX 10 13 0 0
BITMAP
0600
0800
0000
1F00
2180
40C0
8040
8040
8040
8040
C080
6100
3E00
ENDCHAR

STARTCHAR Ocircumflex
ENCODING 212
SWIDTH 786 0
DWIDTH 11 0
BBX 10 13 0 0
BITMAP
0C00
1200
0000
1F00
2180
40C0
8040
8040
8040
8040
C080
6100
3E00
ENDCHAR

STARTCHAR Otilde
ENCODING 213
SWIDTH 786 0
DWIDTH 11 0
BBX 10 13 0 0
BITMAP
1A00
1600
0000
1F00
2180
40C0
8040
8040
8040
8040
C080
6100
3E00
ENDCHAR

STARTCHAR Odieresis
ENCODING 214
SWIDTH 786 0
DWIDTH 11 0
BBX 10 13 0 0
BITMAP
1200
1200
0000
1F00
2180
40C0
8040
8040
8040
8040
C080
6100
3E00
ENDCHAR

STARTCHAR multiply
ENCODING 215
SWIDTH 606 0
DWIDTH 8 0
BBX 7 7 0 1
BITMAP
82
44
28
10
28
44
82
ENDCHAR

STARTCHAR Oslash
ENCODING 216
SWIDTH 833 0
DWIDTH 11 0
BBX 10 10 0 0
BITMAP
1F40
2180
41C0
8240
8440
8840
9040
E080
6100
BE00
ENDCHAR

STARTCHAR Ugrave
ENCODING 217
SWIDTH 778 0
DWIDTH 11 0
BBX 10 13 0 0
BITMAP
1800
0400
0000
E1C0
4080
4080
4080
4080
4080
4080
4080
6100
3E00
ENDCHAR

STARTCHAR Uacute
ENCODING 218
SWIDTH 778 0
DWIDTH 11 0
BBX 10 13 0 0
BITMAP
0600
0800
0000
E1C0
4080
4080
4080
4080
4080
4080
4080
6100
3E00
ENDCHAR

STARTCHAR Ucircumflex
ENCODING 219
SWIDTH 778 0
DWIDTH 11 0
BBX 10 13 0 0
BITMAP
0C00
1200
0000
E1C0
4080
4080
4080
4080
4080
4080
4080
6100
3E00
ENDCHAR

STARTCHAR Udieresis
ENCODING 220
SWIDTH 778 0
DWIDTH 11 0
BBX 10 13 0 0
BITMAP
1200
1200
0000
E1C0
4080
4080
4080
4080
4080
4080
4080
6100
3E00
ENDCHAR

STARTCHAR Yacute
ENCODING 221
SWIDTH 667 0
DWIDTH 9 0
BBX 8 13 0 0
BITMAP
0C
10
00
C1
62
22
14
14
08
08
08
08
1C
ENDCHAR

STARTCHAR Thorn
ENCODING 222
SWIDTH 604 0
DWIDTH 8 0
BBX 7 10 0 0
BITMAP
E0
40
7C
46
42
42
5C
40
40
E0
ENDCHAR

STARTCHAR germandbls
ENCODING 223
SWIDTH 556 0
DWIDTH 8 0
BBX 7 10 0 0
BITMAP
1C
22
42
CE
50
50
4C
42
52
FC
ENDCHAR

STARTCHAR agrave
ENCODING 224
SWIDTH 500 0
DWIDTH 7 0
BBX 6 10 0 0
BITMAP
60
10
00
70
88
38
48
88
98
6C
ENDCHAR

STARTCHAR aacute
ENCODING 225
SWIDTH 500 0
DWIDTH 7 0
BBX 6 10 0 0
BITMAP
30
40
00
70
88
38
48
88
98
6C
ENDCHAR

STARTCHAR acircumflex
ENCODING 226
SWIDTH 500 0
DWIDTH 7 0
BBX 6 10 0 0
BITMAP
30
48
00
70
88
38
48
88
98
6C
ENDCHAR

STARTCHAR atilde
ENCODING 227
SWIDTH 500 0
DWIDTH 7 0
BBX 6 10 0 0
BITMAP
68
58
00
70
88
38
48
88
98
6C
ENDCHAR

STARTCHAR adieresis
ENCODING 228
SWIDTH 500 0
DWIDTH 7 0
BBX 6 10 0 0
BITMAP
48
48
00
70
88
38
48
88
98
6C
ENDCHAR

STARTCHAR aring
ENCODING 229
SWIDTH 500 0
DWIDTH 7 0
BBX 6 11 0 0
BITMAP
30
48
30
00
70
88
38
48
88
98
6C
ENDCHAR

STARTCHAR ae
ENCODING 230
SWIDTH 758 0
DWIDTH 11 0
BBX 10 7 0 0
BITMAP
7B80
8CC0
3840
4FC0
8800
9C40
6780
ENDCHAR

STARTCHAR ccedilla
ENCODING 231
SWIDTH 444 0
DWIDTH 6 0
BBX 5 10 0 -3
BITMAP
78
88
80
80
80
C8
70
20
10
70
ENDCHAR

STARTCHAR egrave
ENCODING 232
SWIDTH 479 0
DWIDTH 7 0
BBX 6 10 0 0
BITMAP
60
10
00
38
CC
84
FC
80
C4
78
ENDCHAR

STARTCHAR eacute
ENCODING 233
SWIDTH 479 0
DWIDTH 7 0
BBX 6 10 0 0
BITMAP
18
20
00
38
CC
84
FC
80
C4
78
ENDCHAR

STARTCHAR ecircumflex
ENCODING 234
SWIDTH 479 0
DWIDTH 7 0
BBX 6 10 0 0
BITMAP
30
48
00
38
CC
84
FC
80
C4
78
ENDCHAR

STARTCHAR edieresis
ENCODING 235
SWIDTH 479 0
DWIDTH 7 0
BBX 6 10 0 0
BITMAP
48
48
00
38
CC
84
FC
80
C4
78
ENDCHAR

STARTCHAR igrave
ENCODING 236
SWIDTH 287 0
DWIDTH 4 0
BBX 3 10 0 0
BITMAP
C0
20
00
C0
40
40
40
40
40
E0
ENDCHAR

STARTCHAR iacute
ENCODING 237
SWIDTH 287 0
DWIDTH 4 0
BBX 3 10 0 0
BITMAP
60
80
00
C0
40
40
40
40
40
E0
ENDCHAR

STARTCHAR icircumflex
ENCODING 238
SWIDTH 287 0
DWIDTH 4 0
BBX 4 10 -1 0
BITMAP
60
90
00
60
20
20
20
20
20
70
ENDCHAR

STARTCHAR idieresis
ENCODING 239
SWIDTH 287 0
DWIDTH 4 0
BBX 4 10 -1 0
BITMAP
90
90
00
60
20
20
20
20
20
70
ENDCHAR

STARTCHAR eth
ENCODING 240
SWIDTH 546 0
DWIDTH 8 0
BBX 7 10 0 0
BITMAP
64
38
44
3C
C6
82
82
82
C6
78
ENDCHAR

STARTCHAR ntilde
ENCODING 241
SWIDTH 582 0
DWIDTH 8 0
BBX 7 10 0 0
BITMAP
68
58
00
D8
64
44
44
44
44
E6
ENDCHAR

STARTCHAR ograve
ENCODING 242
SWIDTH 546 0
DWIDTH 8 0
BBX 7 10 0 0
BITMAP
30
08
00
3C
C6
82
82
82
C6
78
ENDCHAR

STARTCHAR oacute
ENCODING 243
SWIDTH 546 0
DWIDTH 8 0
BBX 7 10 0 0
BITMAP
0C
10
00
3C
C6
82
82
82
C6
78
ENDCHAR

STARTCHAR ocircumflex
ENCODING 244
SWIDTH 546 0
DWIDTH 8 0
BBX 7 10 0 0
BITMAP
18
24
00
3C
C6
82
82
82
C6
78
ENDCHAR

STARTCHAR otilde
ENCODING 245
SWIDTH 546 0
DWIDTH 8 0
BBX 7 10 0 0
BITMAP
34
2C
00
3C
C6
82
82
82
C6
78
ENDCHAR

STARTCHAR odieresis
ENCODING 246
SWIDTH 546 0
DWIDTH 8 0
BBX 7 10 0 0
BITMAP
24
24
00
3C
C6
82
82
82
C6
78
ENDCHAR

STARTCHAR divide
ENCODING 247
SWIDTH 606 0
DWIDTH 8 0
BBX 7 7 0 1
BITMAP
10
10
00
FE
00
10
10
ENDCHAR

STARTCHAR oslash
ENCODING 248
SWIDTH 556 0
DWIDTH 8 0
BBX 7 7 0 0
BITMAP
3E
C6
8A
92
A2
C6
F8
ENDCHAR

STARTCHAR ugrave
ENCODING 249
SWIDTH 603 0
DWIDTH 8 0
BBX 7 10 0 0
BITMAP
60
10
00
CC
44
44
44
44
4C
36
ENDCHAR

STARTCHAR uacute
ENCODING 250
SWIDTH 603 0
DWIDTH 8 0
BBX 7 10 0 0
BITMAP
18
20
00
CC
44
44
44
44
4C
36
ENDCHAR

STARTCHAR ucircumflex
ENCODING 251
SWIDTH 603 0
DWIDTH 8 0
BBX 7 10 0 0
BITMAP
30
48
00
CC
44
44
44
44
4C
36
ENDCHAR

STARTCHAR udieresis
ENCODING 252
SWIDTH 603 0
DWIDTH 8 0
BBX 7 10 0 0
BITMAP
48
48
00
CC
44
44
44
44
4C
36
ENDCHAR

STARTCHAR yacute
ENCODING 253
SWIDTH 556 0
DWIDTH 8 0
BBX 8 14 0 -4
BITMAP
0C
10
00
E7
42
24
24
18
18
10
10
20
20
E0
ENDCHAR

STARTCHAR thorn
ENCODING 254
SWIDTH 601 0
DWIDTH 8 0
BBX 7 14 0 -4
BITMAP
C0
40
40
5C
66
42
42
42
44
78
40
40
40
E0
ENDCHAR

STARTCHAR ydieresis
ENCODING 255
SWIDTH 556 0
DWIDTH 8 0
BBX 8 14 0 -4
BITMAP
24
24
00
E7
42
24
24
18
18
10
10
20
20
E0
ENDCHAR
ENDFONT
